STARTFONT 2.1
COMMENT
COMMENT Converted from OpenType font "Font 90 Icons.ttf" by "otf2bdf 3.0".
COMMENT
FONT -FreeType-Font 90 Icons-Medium-R-Normal--18-130-100-100-P-68-ISO10646-1
SIZE 13 100 100
FONTBOUNDINGBOX 19 19 0 -4
STARTPROPERTIES 19
FOUNDRY "FreeType"
FAMILY_NAME "Font 90 Icons"
WEIGHT_NAME "Medium"
SLANT "R"
SETWIDTH_NAME "Normal"
ADD_STYLE_NAME ""
PIXEL_SIZE 18
POINT_SIZE 130
RESOLUTION_X 100
RESOLUTION_Y 100
SPACING "P"
AVERAGE_WIDTH 68
CHARSET_REGISTRY "ISO10646"
CHARSET_ENCODING "1"
FONT_ASCENT 15
FONT_DESCENT 3
COPYRIGHT "Typeface © (el-harrak.blogspot.com). <darrati10@gmail.com>. All Rights Reserved"
_OTF_FONTFILE "Font 90 Icons.ttf"
_OTF_PSNAME "Font 90 Icons"
ENDPROPERTIES
CHARS 242
STARTCHAR 0000
ENCODING 0
SWIDTH 0 0
DWIDTH 0 0
BBX 0 0 0 0
BITMAP
ENDCHAR
STARTCHAR 001D
ENCODING 29
SWIDTH 0 0
DWIDTH 0 0
BBX 0 0 0 0
BITMAP
ENDCHAR
STARTCHAR 0020
ENCODING 32
SWIDTH 221 0
DWIDTH 4 0
BBX 0 0 0 0
BITMAP
ENDCHAR
STARTCHAR 0021
ENCODING 33
SWIDTH 996 0
DWIDTH 18 0
BBX 17 17 0 -3
BITMAP
07F800
1FF400
3FFA00
3F3900
7F3880
7FF880
FFF080
FFE080
FE0080
FC0080
F80080
78C080
78C080
380100
180200
0C0C00
03F000
ENDCHAR
STARTCHAR 0022
ENCODING 34
SWIDTH 996 0
DWIDTH 18 0
BBX 17 14 0 -1
BITMAP
03E000
021000
021000
FFFF80
FFFF80
FFFF80
FFFF80
FFFF80
FFFF80
FFFF80
FFFF80
FFFF80
FFFF80
FFFF80
ENDCHAR
STARTCHAR 0023
ENCODING 35
SWIDTH 996 0
DWIDTH 18 0
BBX 16 19 1 -4
BITMAP
0F00
FFE0
FFFE
FFFE
DFFE
DFFE
5FFE
7FFF
7FFF
680F
6002
6000
3000
3000
3000
3000
3000
1000
0800
ENDCHAR
STARTCHAR 0024
ENCODING 36
SWIDTH 996 0
DWIDTH 18 0
BBX 17 17 0 -3
BITMAP
380000
7C0000
FE0000
FF0000
7F8000
3FE000
1FC000
0F8000
07C000
024000
002000
001000
000800
000400
000200
000100
000080
ENDCHAR
STARTCHAR 0025
ENCODING 37
SWIDTH 996 0
DWIDTH 18 0
BBX 16 19 1 -4
BITMAP
0180
0380
07E0
1FF8
FDBF
F19F
F91E
7D3E
E7C6
E386
EFF6
793E
F19F
F99F
FFFA
0FF0
03C0
0380
0100
ENDCHAR
STARTCHAR 0026
ENCODING 38
SWIDTH 996 0
DWIDTH 18 0
BBX 17 17 0 -3
BITMAP
07F800
180C00
33F200
27F900
4FFD80
5BFE80
9DFE80
BEFE80
BF3E80
9FFE80
DFFE80
5FFC80
4FFD00
27F300
11C600
0C1C00
03E000
ENDCHAR
STARTCHAR 0027
ENCODING 39
SWIDTH 996 0
DWIDTH 18 0
BBX 17 17 0 -3
BITMAP
1FC000
3FF000
787000
733800
E31800
EFDC00
EFDC00
E31C00
633800
703800
3FFC00
1FFE00
0FFF00
001F80
000F80
000780
000380
ENDCHAR
STARTCHAR 0028
ENCODING 40
SWIDTH 996 0
DWIDTH 18 0
BBX 17 18 0 -3
BITMAP
030000
1FE000
3FF000
787800
703800
E01800
EFDC00
EFDC00
E01C00
603800
703800
3FFC00
1FFE00
0FBF00
001F80
000F80
000780
000380
ENDCHAR
STARTCHAR 0029
ENCODING 41
SWIDTH 996 0
DWIDTH 18 0
BBX 17 13 0 -1
BITMAP
FFFF80
E00180
B00380
980680
8C0C80
861880
833080
85F880
888C80
900680
A00380
C00180
FFFF80
ENDCHAR
STARTCHAR 002A
ENCODING 42
SWIDTH 996 0
DWIDTH 18 0
BBX 15 19 1 -4
BITMAP
0180
0180
0180
0180
0180
1DB0
0FF0
77FE
FBFE
FDFA
FFF6
FFEE
FFDE
FBBE
FE6E
FFF6
FFFA
FFFE
7FFC
ENDCHAR
STARTCHAR 002B
ENCODING 43
SWIDTH 996 0
DWIDTH 18 0
BBX 17 17 0 -3
BITMAP
FFFF80
FFFF80
C3F180
C7F980
C3E180
D3F780
FFFF80
FFFF80
FFFF80
FFFF80
FFF780
D3E380
C3F180
C7F980
C7F880
FFFF80
FFFF80
ENDCHAR
STARTCHAR 002C
ENCODING 44
SWIDTH 996 0
DWIDTH 18 0
BBX 17 17 0 -3
BITMAP
003E00
007F00
00FF80
01F980
03FF80
07FF80
0FFF80
1BFF00
3DFE00
76FC00
FB7800
7DB000
3EE000
1FC000
0F8000
070000
020000
ENDCHAR
STARTCHAR 002D
ENCODING 45
SWIDTH 996 0
DWIDTH 18 0
BBX 17 17 0 -3
BITMAP
07F800
180C00
300200
381100
4C3180
467080
87F080
87F080
87F080
87F080
C07080
403080
601500
201700
180600
0E1C00
03E000
ENDCHAR
STARTCHAR 002E
ENCODING 46
SWIDTH 996 0
DWIDTH 18 0
BBX 15 19 1 -4
BITMAP
7FFE
4002
4002
4002
4002
4002
4002
4002
4002
3FFC
3FFC
7FFE
7FFE
7FFE
0080
0080
07E0
FFFE
07E0
ENDCHAR
STARTCHAR 002F
ENCODING 47
SWIDTH 996 0
DWIDTH 18 0
BBX 17 18 0 -3
BITMAP
00C000
23E300
33F200
93F280
D3F680
53F480
5BF580
5BF580
5BF580
5BF480
53F680
D3F680
93F280
21E200
21C100
01C000
01C000
01C000
ENDCHAR
STARTCHAR 0030
ENCODING 48
SWIDTH 996 0
DWIDTH 18 0
BBX 17 17 0 -3
BITMAP
07F800
1FFC00
3FFE00
33F700
61E380
61C180
C1C180
C12180
FE3F80
FF7F80
FEBF80
7E1F80
7C1F00
3C0F00
1C1E00
0FFC00
03F000
ENDCHAR
STARTCHAR 0031
ENCODING 49
SWIDTH 996 0
DWIDTH 18 0
BBX 17 19 0 -4
BITMAP
01E000
01E000
05E800
0DEC00
3DEE00
39E700
71E700
61E380
E1E380
E1E180
E00180
E00180
600380
700300
380700
3C1E00
1FFC00
07F800
00C000
ENDCHAR
STARTCHAR 0032
ENCODING 50
SWIDTH 996 0
DWIDTH 18 0
BBX 16 19 1 -4
BITMAP
0180
0380
0380
0380
E187
F10F
F91E
3D3C
07C0
0380
0FF0
793E
F19F
E18F
C182
0380
0380
0380
0100
ENDCHAR
STARTCHAR 0033
ENCODING 51
SWIDTH 996 0
DWIDTH 18 0
BBX 17 16 0 -2
BITMAP
008000
008000
00C000
01C000
01E000
03F000
FFFF80
7FFF00
3FFE00
1FFC00
0FF800
0FF800
0FF800
0FFC00
0E3C00
180C00
ENDCHAR
STARTCHAR 0034
ENCODING 52
SWIDTH 996 0
DWIDTH 18 0
BBX 17 13 0 -1
BITMAP
7FFF80
BFFF80
DFFF80
EFFF80
F7FF80
FBFF80
FDEF80
FEF780
FFFB80
FFFD80
FFFE80
FFFF80
7FFF00
ENDCHAR
STARTCHAR 0035
ENCODING 53
SWIDTH 996 0
DWIDTH 18 0
BBX 17 14 0 -2
BITMAP
00DC00
033C00
05DC00
1BF400
2FFB00
DFFC80
1FFE00
1FFE00
1E3E00
1E3E00
1E3E00
1E3E00
1E3E00
1E3C00
ENDCHAR
STARTCHAR 0036
ENCODING 54
SWIDTH 996 0
DWIDTH 18 0
BBX 17 18 0 -3
BITMAP
180C00
380E00
380C00
000C00
FE3F00
FE3F00
BE3F80
BE7E80
BE7F80
BE5F80
BE3F00
3C3F00
3C3F80
3C0E00
3C0E00
3C0E00
3C0E00
3C0E00
ENDCHAR
STARTCHAR 0037
ENCODING 55
SWIDTH 996 0
DWIDTH 18 0
BBX 17 13 0 -1
BITMAP
0FC000
38E000
787000
78F800
CF9800
878800
878800
C78800
78F800
787800
387080
1CFB80
0F8600
ENDCHAR
STARTCHAR 0038
ENCODING 56
SWIDTH 996 0
DWIDTH 18 0
BBX 14 19 2 -4
BITMAP
FFF8
FFFC
800C
800C
800C
FFFC
CCCC
CCCC
CCCC
FFFC
CCCC
CCCC
CCCC
FFFC
CCCC
CCCC
CCCC
FFFC
7FF8
ENDCHAR
STARTCHAR 0039
ENCODING 57
SWIDTH 996 0
DWIDTH 18 0
BBX 17 17 0 -3
BITMAP
C00000
600000
27FF80
37FF80
17FF00
1BFF00
1BFE00
0BFE00
0BFE00
080000
080000
0FFF00
000000
0E0700
0E0F00
0E0700
040200
ENDCHAR
STARTCHAR 003A
ENCODING 58
SWIDTH 996 0
DWIDTH 18 0
BBX 17 17 0 -2
BITMAP
003E00
00FF00
00F980
00F980
01FF80
01FF80
00FF80
02FF80
077F00
0F9C00
1FC000
3F8000
7E0000
F80000
F80000
F00000
700000
ENDCHAR
STARTCHAR 003B
ENCODING 59
SWIDTH 996 0
DWIDTH 18 0
BBX 17 17 0 -3
BITMAP
008000
008000
008000
008000
008000
008000
008000
008000
FFFF80
008000
008000
008000
008000
008000
008000
008000
008000
ENDCHAR
STARTCHAR 003C
ENCODING 60
SWIDTH 996 0
DWIDTH 18 0
BBX 17 14 0 -1
BITMAP
008000
00C000
01C000
016000
033000
063000
061800
0C0800
080C00
180600
300600
300300
600100
C00180
ENDCHAR
STARTCHAR 003D
ENCODING 61
SWIDTH 996 0
DWIDTH 18 0
BBX 17 17 0 -3
BITMAP
07F800
180400
200200
4FE100
463080
863080
863080
866080
87C080
86C080
866080
463080
461900
2F1D00
100200
0C0C00
03F000
ENDCHAR
STARTCHAR 003E
ENCODING 62
SWIDTH 996 0
DWIDTH 18 0
BBX 17 17 0 -3
BITMAP
07F800
180400
204200
43B900
440880
8C0880
980080
980080
980080
980080
8C0080
4C0480
461900
21E100
100200
0C0C00
03F000
ENDCHAR
STARTCHAR 003F
ENCODING 63
SWIDTH 996 0
DWIDTH 18 0
BBX 17 17 0 -3
BITMAP
07F800
1FFC00
380E00
300700
600380
600180
C00180
C00180
C00180
C00180
C00180
600180
700300
380700
1C1E00
0FFC00
03F000
ENDCHAR
STARTCHAR 0040
ENCODING 64
SWIDTH 996 0
DWIDTH 18 0
BBX 17 17 0 -3
BITMAP
008000
00C000
01C000
01E000
03E000
03F000
07F000
07F800
0FF800
0FFC00
1FFC00
1FFE00
3FFE00
3FFF00
7FFF00
7FFF80
FFFF80
ENDCHAR
STARTCHAR 0041
ENCODING 65
SWIDTH 996 0
DWIDTH 18 0
BBX 17 17 0 -3
BITMAP
820000
C30000
F3C000
FBE000
FDF000
FFFC00
FFBE00
FFDF00
FFEF80
FFFF00
FF7C00
FEF800
FFF000
F3C000
E38000
C30000
820000
ENDCHAR
STARTCHAR 0042
ENCODING 66
SWIDTH 996 0
DWIDTH 18 0
BBX 15 18 1 -3
BITMAP
801E
E01E
F01E
FC1E
FF1E
FF9E
FFFE
FFFE
FFFE
FFFE
FFFE
FFFE
FFDE
FF1E
FE1E
F81E
F01E
C01E
ENDCHAR
STARTCHAR 0043
ENCODING 67
SWIDTH 996 0
DWIDTH 18 0
BBX 13 19 2 -4
BITMAP
FCF8
FCF8
FCF8
FCF8
FCF8
FCF8
FCF8
FCF8
FCF8
FCF8
FCF8
FCF8
FCF8
FCF8
FCF8
FCF8
FCF8
FCF8
FCF8
ENDCHAR
STARTCHAR 0044
ENCODING 68
SWIDTH 996 0
DWIDTH 18 0
BBX 15 18 1 -3
BITMAP
8000
E000
F000
FC00
FE00
FF80
FFE0
FFF0
FFFC
FFFE
FFF8
FFF0
FFC0
FF00
FE00
F800
F000
C000
ENDCHAR
STARTCHAR 0045
ENCODING 69
SWIDTH 996 0
DWIDTH 18 0
BBX 17 17 0 -3
BITMAP
07F800
1FFC00
3FFE00
3FFF00
7F7F80
7C1F80
F80F80
F80780
F80780
F80F80
FC0F80
7E1F80
7FFF00
3FFF00
1FFE00
0FFC00
03E000
ENDCHAR
STARTCHAR 0046
ENCODING 70
SWIDTH 996 0
DWIDTH 18 0
BBX 17 17 0 -3
BITMAP
FFFF80
FFFF80
FFFF80
FFFF80
FFFF80
FFFF80
FFFF80
FFFF80
FFFF80
FFFF80
FFFF80
FFFF80
FFFF80
FFFF80
FFFF80
FFFF80
FFFF80
ENDCHAR
STARTCHAR 0047
ENCODING 71
SWIDTH 996 0
DWIDTH 18 0
BBX 15 19 1 -4
BITMAP
F002
F006
F01E
F03E
F0FE
F3FE
F7FE
FFFE
FFFE
FFFE
FFFE
FFFE
F7FE
F1FE
F07E
F03E
F00E
F002
F002
ENDCHAR
STARTCHAR 0048
ENCODING 72
SWIDTH 996 0
DWIDTH 18 0
BBX 17 17 0 -3
BITMAP
002080
006180
00E380
03E780
07FF80
0FBF80
1F7F80
7FFF80
FDFF80
3EFF80
1F7F80
0FDF80
03EF80
01E780
00E180
002080
001080
ENDCHAR
STARTCHAR 0049
ENCODING 73
SWIDTH 996 0
DWIDTH 18 0
BBX 17 17 0 -3
BITMAP
D80000
DC0000
DD0000
DDC000
DDE000
DDF800
DDFC00
DDFF00
DDFF80
DDFE00
DDFC00
DDF000
DDC000
DD8000
DD0000
DC0000
D00000
ENDCHAR
STARTCHAR 004A
ENCODING 74
SWIDTH 996 0
DWIDTH 18 0
BBX 17 17 0 -3
BITMAP
008000
00C000
01E000
03F000
07F000
0FF800
0FFC00
1FFE00
3FFE00
7FFF00
7FFF80
800000
000000
FFFF80
FFFF80
FFFF80
FFFF80
ENDCHAR
STARTCHAR 004B
ENCODING 75
SWIDTH 996 0
DWIDTH 18 0
BBX 17 17 0 -2
BITMAP
000700
000600
000E00
000C00
001C00
7FF800
FFF800
1FFC00
00FC00
00FE00
01DF00
018F00
038780
1F0380
078180
018080
008000
ENDCHAR
STARTCHAR 004C
ENCODING 76
SWIDTH 996 0
DWIDTH 18 0
BBX 15 19 1 -4
BITMAP
0008
0008
0FF8
1FFC
39FC
407C
00FE
00FC
0100
0000
0300
FE00
7E00
7E06
3FFC
3FF0
11C0
1000
1000
ENDCHAR
STARTCHAR 004D
ENCODING 77
SWIDTH 996 0
DWIDTH 18 0
BBX 17 15 0 -2
BITMAP
07C000
1FF000
383800
701C00
600C00
E00E00
C03F80
C01F00
C00E00
E00400
600000
782000
3FE000
0FF000
038000
ENDCHAR
STARTCHAR 004E
ENCODING 78
SWIDTH 996 0
DWIDTH 18 0
BBX 17 12 0 0
BITMAP
000300
000780
000F80
001F00
703E00
F87C00
7CF800
3FF000
1FE000
0FC000
078000
030000
ENDCHAR
STARTCHAR 004F
ENCODING 79
SWIDTH 996 0
DWIDTH 18 0
BBX 17 17 0 -3
BITMAP
FE0000
FF8000
7FE000
03F000
00F800
FC7C00
FF1E00
7F9E00
07CF00
03E700
01E780
38F380
7C7380
FC7380
FC7380
7C7380
383180
ENDCHAR
STARTCHAR 0050
ENCODING 80
SWIDTH 996 0
DWIDTH 18 0
BBX 16 18 1 -3
BITMAP
03C0
0FF0
1FF8
3C3C
381C
700C
700C
700C
FFFF
FFFF
FFFF
FE7F
FE7F
FEFF
FE7F
FE7F
FFFF
FFFF
ENDCHAR
STARTCHAR 0051
ENCODING 81
SWIDTH 996 0
DWIDTH 18 0
BBX 17 17 0 -3
BITMAP
0FFC00
0FFC00
0FFC00
0FFC00
0FFC00
0FFC00
008000
008000
0FF800
100400
100400
FF3F80
FF3F80
FF3F80
FF3F80
FF3F80
FF3F80
ENDCHAR
STARTCHAR 0052
ENCODING 82
SWIDTH 996 0
DWIDTH 18 0
BBX 17 10 0 1
BITMAP
010000
018000
3FDE00
7FFF00
618380
C10180
C00180
E00180
7FFF80
3FFF00
ENDCHAR
STARTCHAR 0053
ENCODING 83
SWIDTH 996 0
DWIDTH 18 0
BBX 18 14 0 -1
BITMAP
001800
003C00
007E00
FFFF00
FDFF80
FFDB80
FCDA40
DFDB80
DFDB80
FFDB80
BFDB00
BFDB00
BFFF00
7FFF00
ENDCHAR
STARTCHAR 0054
ENCODING 84
SWIDTH 996 0
DWIDTH 18 0
BBX 17 17 0 -3
BITMAP
07F800
1FFC00
3E1E00
380F00
7C0780
660380
E30180
E18180
E0C180
E06180
E03380
701B80
700F00
3C0F00
1FFE00
0FF800
03E000
ENDCHAR
STARTCHAR 0055
ENCODING 85
SWIDTH 996 0
DWIDTH 18 0
BBX 17 15 0 -2
BITMAP
00C000
01C000
03C000
07C000
FFC000
FFC000
FFDF80
FFDF80
FFC000
FFC000
07C000
03C000
01C000
00C000
008000
ENDCHAR
STARTCHAR 0056
ENCODING 86
SWIDTH 996 0
DWIDTH 18 0
BBX 17 16 0 -2
BITMAP
004000
00C000
01C000
03C000
07C000
FFC600
FFC600
FFDF80
FFDF80
FFC600
FFC600
07C600
03C000
01C000
00C000
004000
ENDCHAR
STARTCHAR 0057
ENCODING 87
SWIDTH 996 0
DWIDTH 18 0
BBX 17 17 0 -3
BITMAP
3C1F00
7F3F80
FF7F80
FFFF80
FFFF80
7FFF80
7FFF80
3FFF00
1FFE00
0FFC00
07F800
03F000
01E000
00C000
00C000
008000
008000
ENDCHAR
STARTCHAR 0058
ENCODING 88
SWIDTH 996 0
DWIDTH 18 0
BBX 14 19 2 -4
BITMAP
1800
1800
1800
1800
1800
1B00
1B60
1B6C
DFEC
DFFC
DFFC
DFFC
FFFC
FFFC
FFFC
7FFC
3FFC
3FFC
0FF0
ENDCHAR
STARTCHAR 0059
ENCODING 89
SWIDTH 996 0
DWIDTH 18 0
BBX 13 18 2 -3
BITMAP
0300
0300
1B40
1B40
1B48
1B48
1B48
1B48
1B48
DFF8
DFF8
DFF8
FFF8
FFF8
7FF8
7FF8
3FF8
1FF8
ENDCHAR
STARTCHAR 005A
ENCODING 90
SWIDTH 996 0
DWIDTH 18 0
BBX 17 18 0 -3
BITMAP
000200
004300
00C100
00C900
01CD80
03CD80
FFC480
FFC480
FFC480
FFC480
FFC480
FFC480
FFCD80
07CD80
03C980
01C100
00C300
004200
ENDCHAR
STARTCHAR 005B
ENCODING 91
SWIDTH 996 0
DWIDTH 18 0
BBX 17 17 0 -3
BITMAP
C00000
F00000
FC0000
FF0000
FFC000
FFF000
FFFC00
FFFF00
FFFF80
FFFE00
FFF800
FFE000
FF8000
FE0000
F80000
E00000
800000
ENDCHAR
STARTCHAR 005C
ENCODING 92
SWIDTH 996 0
DWIDTH 18 0
BBX 17 17 0 -3
BITMAP
FFFF80
7FFF00
3FFF00
3FFE00
1FFE00
1FFC00
0FFC00
0FF800
07F800
07F000
03F000
03E000
01E000
01C000
00C000
008000
008000
ENDCHAR
STARTCHAR 005D
ENCODING 93
SWIDTH 996 0
DWIDTH 18 0
BBX 17 17 0 -3
BITMAP
000080
000380
000F80
003F80
00FF80
03FF80
0FFF80
3FFF80
FFFF80
1FFF80
07FF80
01FF80
007F80
001F80
000780
000180
000080
ENDCHAR
STARTCHAR 005E
ENCODING 94
SWIDTH 996 0
DWIDTH 18 0
BBX 17 6 0 3
BITMAP
100200
200100
400180
FFFF80
600100
200200
ENDCHAR
STARTCHAR 005F
ENCODING 95
SWIDTH 996 0
DWIDTH 18 0
BBX 7 19 5 -4
BITMAP
10
38
7C
9A
18
18
18
18
18
18
18
18
18
18
18
DA
3C
18
10
ENDCHAR
STARTCHAR 0060
ENCODING 96
SWIDTH 996 0
DWIDTH 18 0
BBX 6 19 6 -4
BITMAP
30
30
30
30
30
30
30
30
30
30
30
30
30
30
30
B4
78
30
20
ENDCHAR
STARTCHAR 0061
ENCODING 97
SWIDTH 996 0
DWIDTH 18 0
BBX 17 10 0 1
BITMAP
000200
07C200
0FF600
1FFF00
3FFF00
607F00
403F80
807F80
00FF80
01FF80
ENDCHAR
STARTCHAR 0062
ENCODING 98
SWIDTH 996 0
DWIDTH 18 0
BBX 17 10 0 1
BITMAP
200000
30F000
33FC00
3FFE00
3FFF00
7F8300
7E0080
7F0080
7F8000
FFC000
ENDCHAR
STARTCHAR 0063
ENCODING 99
SWIDTH 996 0
DWIDTH 18 0
BBX 17 19 0 -4
BITMAP
01E000
01E000
01E000
01E000
01E000
01E000
01E000
01E000
01E000
F1E780
FDFF80
7FFF80
3FFF00
1FFE00
0FFC00
07F800
03F000
01E000
008000
ENDCHAR
STARTCHAR 0064
ENCODING 100
SWIDTH 996 0
DWIDTH 18 0
BBX 17 17 0 -3
BITMAP
000700
600F80
F01F80
F03F80
F87F00
F8FE00
F9FC00
FFF800
FFF000
FFE000
FFC000
FF8000
FFF000
FFFE00
FFFF00
FFFF00
7FFE00
ENDCHAR
STARTCHAR 0065
ENCODING 101
SWIDTH 996 0
DWIDTH 18 0
BBX 17 17 0 -3
BITMAP
380000
7C0380
FE0380
7F0780
3F8780
1FC780
0FEF80
07FF80
03FF80
01FF80
00FF80
00FF80
03FF80
1FFF80
3FFF80
3FFF80
1FFF80
ENDCHAR
STARTCHAR 0066
ENCODING 102
SWIDTH 996 0
DWIDTH 18 0
BBX 17 16 0 -2
BITMAP
01C000
03C000
078000
0F8000
1F0000
3F0000
7FFF80
FFFF80
FFFF80
7FFF80
3F0000
1F0000
0F8000
078000
03C000
018000
ENDCHAR
STARTCHAR 0067
ENCODING 103
SWIDTH 996 0
DWIDTH 18 0
BBX 17 16 0 -2
BITMAP
004000
00E000
00F000
007800
007C00
003E00
7FFF00
FFFF80
FFFF80
FFFF80
003F00
003E00
007C00
007800
00F000
00E000
ENDCHAR
STARTCHAR 0068
ENCODING 104
SWIDTH 996 0
DWIDTH 18 0
BBX 17 19 0 -4
BITMAP
00C000
01E000
03F000
07F800
0FFC00
1FFE00
3FFF00
7FFF80
FDEF80
F1E380
01E000
01E000
01E000
01E000
01E000
01E000
01E000
01E000
00C000
ENDCHAR
STARTCHAR 0069
ENCODING 105
SWIDTH 996 0
DWIDTH 18 0
BBX 17 18 0 -3
BITMAP
3FFC00
FFFF00
FFFF00
FFFE00
FFF800
FFE000
FF8000
FFC000
FFE000
FFF000
FBF800
F9FC00
F8FE00
F07F00
F03F80
601F80
000F80
000700
ENDCHAR
STARTCHAR 006A
ENCODING 106
SWIDTH 996 0
DWIDTH 18 0
BBX 17 18 0 -3
BITMAP
0FFF00
3FFF80
3FFF80
3FFF80
0FFF80
01FF80
00FF80
01FF80
03FF80
07FF80
0FEF80
1FC780
3F8780
7F0780
FE0380
FC0380
780000
300000
ENDCHAR
STARTCHAR 006B
ENCODING 107
SWIDTH 996 0
DWIDTH 18 0
BBX 17 15 0 -2
BITMAP
002000
002000
003000
01F800
0FFC00
3FFE00
7FFF00
7FFF80
787F00
E07C00
C0F000
C0C000
808000
800000
800000
ENDCHAR
STARTCHAR 006C
ENCODING 108
SWIDTH 1052 0
DWIDTH 19 0
BBX 19 17 0 -3
BITMAP
008000
018000
038000
078000
0FF800
1FFF00
3FFF80
7FFFC0
FFFFC0
3FC3E0
0FC1E0
07C0E0
01C060
004020
002020
000020
000020
ENDCHAR
STARTCHAR 006D
ENCODING 109
SWIDTH 996 0
DWIDTH 18 0
BBX 15 19 1 -4
BITMAP
07E0
07E0
07E0
07E0
07E0
07E0
07E0
07E0
07E0
07E0
FFFE
7FFC
3FF8
1FF0
0FF0
07E0
03C0
0180
0100
ENDCHAR
STARTCHAR 006E
ENCODING 110
SWIDTH 996 0
DWIDTH 18 0
BBX 17 14 0 -1
BITMAP
010000
030000
070000
0F0000
1FFF80
3FFF80
7FFF80
FFFF80
7FFF80
1FFF80
0F0000
070000
030000
010000
ENDCHAR
STARTCHAR 006F
ENCODING 111
SWIDTH 996 0
DWIDTH 18 0
BBX 17 14 0 -1
BITMAP
004000
002000
003000
003800
FFFC00
FFFF00
FFFF80
FFFF80
FFFF00
FFFE00
003C00
003800
003000
002000
ENDCHAR
STARTCHAR 0070
ENCODING 112
SWIDTH 996 0
DWIDTH 18 0
BBX 15 19 1 -4
BITMAP
0100
0180
03C0
07E0
0FF0
1FF8
3FFC
7FFE
87E0
07E0
07E0
07E0
07E0
07E0
07E0
07E0
07E0
07E0
07E0
ENDCHAR
STARTCHAR 0071
ENCODING 113
SWIDTH 996 0
DWIDTH 18 0
BBX 16 19 1 -4
BITMAP
0020
0030
0070
0078
00F8
E0FC
E1FC
E3FE
E3FF
E070
E070
E070
E070
E070
F0F0
79E0
3FE0
1F80
0200
ENDCHAR
STARTCHAR 0072
ENCODING 114
SWIDTH 996 0
DWIDTH 18 0
BBX 17 15 0 -2
BITMAP
010000
070000
0F0000
3FF800
FFFE00
3FFF00
0F0780
070380
010180
000180
000380
000780
07FF00
07FE00
07F800
ENDCHAR
STARTCHAR 0073
ENCODING 115
SWIDTH 996 0
DWIDTH 18 0
BBX 17 13 0 -1
BITMAP
0FF800
3FFE00
7FFF00
7FFF80
FFFF80
FFFF80
FFFF80
7FFF80
7FFF00
1FFE00
07F800
030000
060000
ENDCHAR
STARTCHAR 0074
ENCODING 116
SWIDTH 996 0
DWIDTH 18 0
BBX 17 15 0 -2
BITMAP
FFFF80
FFFF80
FFFF80
FFFF80
FFFF80
FFFF80
FFFF80
FFFF80
FFFF80
FFFF80
FFFF80
01C000
010000
020000
020000
ENDCHAR
STARTCHAR 0075
ENCODING 117
SWIDTH 996 0
DWIDTH 18 0
BBX 17 14 0 -1
BITMAP
008000
0FFC00
3FFE00
7FFF00
FFFF80
FFFF80
FFFF80
FFFF80
7FFF80
3FFF00
1FFE00
07F800
006000
003800
ENDCHAR
STARTCHAR 0076
ENCODING 118
SWIDTH 996 0
DWIDTH 18 0
BBX 17 15 0 -2
BITMAP
FFFF80
FFFF80
FFFF80
FFFF80
FFFF80
FFFF80
FFFF80
FFFF80
FFFF80
FFFF80
FFFF80
00C000
006000
002000
001000
ENDCHAR
STARTCHAR 0077
ENCODING 119
SWIDTH 996 0
DWIDTH 18 0
BBX 17 17 0 -3
BITMAP
01C000
01C000
3BEE00
3FFE00
1FFE00
1FFC00
3E1C00
FC1F80
FC0F80
7C1F80
1E3C00
1FFC00
3FFE00
3FEE00
19C600
01C000
00C000
ENDCHAR
STARTCHAR 0078
ENCODING 120
SWIDTH 996 0
DWIDTH 18 0
BBX 17 14 0 -2
BITMAP
680000
3A0000
EE0000
446600
EE7E00
7FFE00
37FF80
01C780
01C380
03C600
03EF80
00FF80
00FC00
00CC00
ENDCHAR
STARTCHAR 0079
ENCODING 121
SWIDTH 996 0
DWIDTH 18 0
BBX 17 15 0 -1
BITMAP
0FC700
1E2E80
1E0F80
3F1F80
E39E00
61FE00
20F000
01F000
03F800
079C00
0F1E00
1E0F00
7C0780
780380
300100
ENDCHAR
STARTCHAR 007A
ENCODING 122
SWIDTH 996 0
DWIDTH 18 0
BBX 17 17 0 -3
BITMAP
002000
004000
00C000
00C000
00C000
018000
018080
398F00
7DFE00
CFF000
FF0000
7B8000
07C000
06C000
06C000
078000
030000
ENDCHAR
STARTCHAR 007B
ENCODING 123
SWIDTH 996 0
DWIDTH 18 0
BBX 17 16 0 -2
BITMAP
000E00
000E00
000B00
000300
000180
000080
000080
000080
C00080
C00080
400180
600180
200300
380600
1E1C00
07F800
ENDCHAR
STARTCHAR 007C
ENCODING 124
SWIDTH 996 0
DWIDTH 18 0
BBX 17 16 0 -2
BITMAP
1C0000
1C0000
380000
600000
400000
C00000
C00000
C00000
C00080
C00080
400180
600180
600300
380600
1C1C00
07F800
ENDCHAR
STARTCHAR 007D
ENCODING 125
SWIDTH 498 0
DWIDTH 9 0
BBX 0 0 0 0
BITMAP
ENDCHAR
STARTCHAR 007E
ENCODING 126
SWIDTH 498 0
DWIDTH 9 0
BBX 0 0 0 0
BITMAP
ENDCHAR
STARTCHAR 00A0
ENCODING 160
SWIDTH 221 0
DWIDTH 4 0
BBX 0 0 0 0
BITMAP
ENDCHAR
STARTCHAR 00A1
ENCODING 161
SWIDTH 332 0
DWIDTH 6 0
BBX 0 0 0 0
BITMAP
ENDCHAR
STARTCHAR 00A2
ENCODING 162
SWIDTH 553 0
DWIDTH 10 0
BBX 0 0 0 0
BITMAP
ENDCHAR
STARTCHAR 00A3
ENCODING 163
SWIDTH 498 0
DWIDTH 9 0
BBX 0 0 0 0
BITMAP
ENDCHAR
STARTCHAR 00A4
ENCODING 164
SWIDTH 498 0
DWIDTH 9 0
BBX 0 0 0 0
BITMAP
ENDCHAR
STARTCHAR 00A5
ENCODING 165
SWIDTH 609 0
DWIDTH 11 0
BBX 0 0 0 0
BITMAP
ENDCHAR
STARTCHAR 00A6
ENCODING 166
SWIDTH 498 0
DWIDTH 9 0
BBX 0 0 0 0
BITMAP
ENDCHAR
STARTCHAR 00A7
ENCODING 167
SWIDTH 498 0
DWIDTH 9 0
BBX 0 0 0 0
BITMAP
ENDCHAR
STARTCHAR 00A8
ENCODING 168
SWIDTH 498 0
DWIDTH 9 0
BBX 0 0 0 0
BITMAP
ENDCHAR
STARTCHAR 00A9
ENCODING 169
SWIDTH 830 0
DWIDTH 15 0
BBX 0 0 0 0
BITMAP
ENDCHAR
STARTCHAR 00AA
ENCODING 170
SWIDTH 332 0
DWIDTH 6 0
BBX 0 0 0 0
BITMAP
ENDCHAR
STARTCHAR 00AB
ENCODING 171
SWIDTH 443 0
DWIDTH 8 0
BBX 0 0 0 0
BITMAP
ENDCHAR
STARTCHAR 00AC
ENCODING 172
SWIDTH 498 0
DWIDTH 9 0
BBX 0 0 0 0
BITMAP
ENDCHAR
STARTCHAR 00AD
ENCODING 173
SWIDTH 996 0
DWIDTH 18 0
BBX 17 17 0 -3
BITMAP
07F800
180C00
300200
381100
4C3180
467080
87F080
87F080
87F080
87F080
C07080
403080
601500
201700
180600
0E1C00
03E000
ENDCHAR
STARTCHAR 00AE
ENCODING 174
SWIDTH 830 0
DWIDTH 15 0
BBX 0 0 0 0
BITMAP
ENDCHAR
STARTCHAR 00AF
ENCODING 175
SWIDTH 332 0
DWIDTH 6 0
BBX 0 0 0 0
BITMAP
ENDCHAR
STARTCHAR 00B0
ENCODING 176
SWIDTH 332 0
DWIDTH 6 0
BBX 0 0 0 0
BITMAP
ENDCHAR
STARTCHAR 00B1
ENCODING 177
SWIDTH 498 0
DWIDTH 9 0
BBX 0 0 0 0
BITMAP
ENDCHAR
STARTCHAR 00B2
ENCODING 178
SWIDTH 498 0
DWIDTH 9 0
BBX 0 0 0 0
BITMAP
ENDCHAR
STARTCHAR 00B3
ENCODING 179
SWIDTH 498 0
DWIDTH 9 0
BBX 0 0 0 0
BITMAP
ENDCHAR
STARTCHAR 00B4
ENCODING 180
SWIDTH 498 0
DWIDTH 9 0
BBX 0 0 0 0
BITMAP
ENDCHAR
STARTCHAR 00B5
ENCODING 181
SWIDTH 553 0
DWIDTH 10 0
BBX 0 0 0 0
BITMAP
ENDCHAR
STARTCHAR 00B6
ENCODING 182
SWIDTH 498 0
DWIDTH 9 0
BBX 0 0 0 0
BITMAP
ENDCHAR
STARTCHAR 00B7
ENCODING 183
SWIDTH 221 0
DWIDTH 4 0
BBX 0 0 0 0
BITMAP
ENDCHAR
STARTCHAR 00B8
ENCODING 184
SWIDTH 498 0
DWIDTH 9 0
BBX 0 0 0 0
BITMAP
ENDCHAR
STARTCHAR 00B9
ENCODING 185
SWIDTH 498 0
DWIDTH 9 0
BBX 0 0 0 0
BITMAP
ENDCHAR
STARTCHAR 00BA
ENCODING 186
SWIDTH 332 0
DWIDTH 6 0
BBX 0 0 0 0
BITMAP
ENDCHAR
STARTCHAR 00BB
ENCODING 187
SWIDTH 443 0
DWIDTH 8 0
BBX 0 0 0 0
BITMAP
ENDCHAR
STARTCHAR 00BC
ENCODING 188
SWIDTH 830 0
DWIDTH 15 0
BBX 0 0 0 0
BITMAP
ENDCHAR
STARTCHAR 00BD
ENCODING 189
SWIDTH 941 0
DWIDTH 17 0
BBX 0 0 0 0
BITMAP
ENDCHAR
STARTCHAR 00BE
ENCODING 190
SWIDTH 830 0
DWIDTH 15 0
BBX 0 0 0 0
BITMAP
ENDCHAR
STARTCHAR 00BF
ENCODING 191
SWIDTH 387 0
DWIDTH 7 0
BBX 0 0 0 0
BITMAP
ENDCHAR
STARTCHAR 00C0
ENCODING 192
SWIDTH 775 0
DWIDTH 14 0
BBX 0 0 0 0
BITMAP
ENDCHAR
STARTCHAR 00C1
ENCODING 193
SWIDTH 775 0
DWIDTH 14 0
BBX 0 0 0 0
BITMAP
ENDCHAR
STARTCHAR 00C2
ENCODING 194
SWIDTH 775 0
DWIDTH 14 0
BBX 0 0 0 0
BITMAP
ENDCHAR
STARTCHAR 00C3
ENCODING 195
SWIDTH 775 0
DWIDTH 14 0
BBX 0 0 0 0
BITMAP
ENDCHAR
STARTCHAR 00C4
ENCODING 196
SWIDTH 775 0
DWIDTH 14 0
BBX 0 0 0 0
BITMAP
ENDCHAR
STARTCHAR 00C5
ENCODING 197
SWIDTH 775 0
DWIDTH 14 0
BBX 0 0 0 0
BITMAP
ENDCHAR
STARTCHAR 00C6
ENCODING 198
SWIDTH 1052 0
DWIDTH 19 0
BBX 0 0 0 0
BITMAP
ENDCHAR
STARTCHAR 00C7
ENCODING 199
SWIDTH 664 0
DWIDTH 12 0
BBX 0 0 0 0
BITMAP
ENDCHAR
STARTCHAR 00C8
ENCODING 200
SWIDTH 553 0
DWIDTH 10 0
BBX 0 0 0 0
BITMAP
ENDCHAR
STARTCHAR 00C9
ENCODING 201
SWIDTH 553 0
DWIDTH 10 0
BBX 0 0 0 0
BITMAP
ENDCHAR
STARTCHAR 00CA
ENCODING 202
SWIDTH 553 0
DWIDTH 10 0
BBX 0 0 0 0
BITMAP
ENDCHAR
STARTCHAR 00CB
ENCODING 203
SWIDTH 553 0
DWIDTH 10 0
BBX 0 0 0 0
BITMAP
ENDCHAR
STARTCHAR 00CC
ENCODING 204
SWIDTH 332 0
DWIDTH 6 0
BBX 0 0 0 0
BITMAP
ENDCHAR
STARTCHAR 00CD
ENCODING 205
SWIDTH 332 0
DWIDTH 6 0
BBX 0 0 0 0
BITMAP
ENDCHAR
STARTCHAR 00CE
ENCODING 206
SWIDTH 332 0
DWIDTH 6 0
BBX 0 0 0 0
BITMAP
ENDCHAR
STARTCHAR 00CF
ENCODING 207
SWIDTH 332 0
DWIDTH 6 0
BBX 0 0 0 0
BITMAP
ENDCHAR
STARTCHAR 00D0
ENCODING 208
SWIDTH 720 0
DWIDTH 13 0
BBX 0 0 0 0
BITMAP
ENDCHAR
STARTCHAR 00D1
ENCODING 209
SWIDTH 775 0
DWIDTH 14 0
BBX 0 0 0 0
BITMAP
ENDCHAR
STARTCHAR 00D2
ENCODING 210
SWIDTH 775 0
DWIDTH 14 0
BBX 0 0 0 0
BITMAP
ENDCHAR
STARTCHAR 00D3
ENCODING 211
SWIDTH 775 0
DWIDTH 14 0
BBX 0 0 0 0
BITMAP
ENDCHAR
STARTCHAR 00D4
ENCODING 212
SWIDTH 775 0
DWIDTH 14 0
BBX 0 0 0 0
BITMAP
ENDCHAR
STARTCHAR 00D5
ENCODING 213
SWIDTH 775 0
DWIDTH 14 0
BBX 0 0 0 0
BITMAP
ENDCHAR
STARTCHAR 00D6
ENCODING 214
SWIDTH 775 0
DWIDTH 14 0
BBX 0 0 0 0
BITMAP
ENDCHAR
STARTCHAR 00D7
ENCODING 215
SWIDTH 498 0
DWIDTH 9 0
BBX 0 0 0 0
BITMAP
ENDCHAR
STARTCHAR 00D8
ENCODING 216
SWIDTH 775 0
DWIDTH 14 0
BBX 0 0 0 0
BITMAP
ENDCHAR
STARTCHAR 00D9
ENCODING 217
SWIDTH 720 0
DWIDTH 13 0
BBX 0 0 0 0
BITMAP
ENDCHAR
STARTCHAR 00DA
ENCODING 218
SWIDTH 720 0
DWIDTH 13 0
BBX 0 0 0 0
BITMAP
ENDCHAR
STARTCHAR 00DB
ENCODING 219
SWIDTH 720 0
DWIDTH 13 0
BBX 0 0 0 0
BITMAP
ENDCHAR
STARTCHAR 00DC
ENCODING 220
SWIDTH 720 0
DWIDTH 13 0
BBX 0 0 0 0
BITMAP
ENDCHAR
STARTCHAR 00DD
ENCODING 221
SWIDTH 609 0
DWIDTH 11 0
BBX 0 0 0 0
BITMAP
ENDCHAR
STARTCHAR 00DE
ENCODING 222
SWIDTH 553 0
DWIDTH 10 0
BBX 0 0 0 0
BITMAP
ENDCHAR
STARTCHAR 00DF
ENCODING 223
SWIDTH 609 0
DWIDTH 11 0
BBX 0 0 0 0
BITMAP
ENDCHAR
STARTCHAR 00E0
ENCODING 224
SWIDTH 443 0
DWIDTH 8 0
BBX 0 0 0 0
BITMAP
ENDCHAR
STARTCHAR 00E1
ENCODING 225
SWIDTH 443 0
DWIDTH 8 0
BBX 0 0 0 0
BITMAP
ENDCHAR
STARTCHAR 00E2
ENCODING 226
SWIDTH 443 0
DWIDTH 8 0
BBX 0 0 0 0
BITMAP
ENDCHAR
STARTCHAR 00E3
ENCODING 227
SWIDTH 443 0
DWIDTH 8 0
BBX 0 0 0 0
BITMAP
ENDCHAR
STARTCHAR 00E4
ENCODING 228
SWIDTH 443 0
DWIDTH 8 0
BBX 0 0 0 0
BITMAP
ENDCHAR
STARTCHAR 00E5
ENCODING 229
SWIDTH 443 0
DWIDTH 8 0
BBX 0 0 0 0
BITMAP
ENDCHAR
STARTCHAR 00E6
ENCODING 230
SWIDTH 720 0
DWIDTH 13 0
BBX 0 0 0 0
BITMAP
ENDCHAR
STARTCHAR 00E7
ENCODING 231
SWIDTH 443 0
DWIDTH 8 0
BBX 0 0 0 0
BITMAP
ENDCHAR
STARTCHAR 00E8
ENCODING 232
SWIDTH 443 0
DWIDTH 8 0
BBX 0 0 0 0
BITMAP
ENDCHAR
STARTCHAR 00E9
ENCODING 233
SWIDTH 443 0
DWIDTH 8 0
BBX 0 0 0 0
BITMAP
ENDCHAR
STARTCHAR 00EA
ENCODING 234
SWIDTH 443 0
DWIDTH 8 0
BBX 0 0 0 0
BITMAP
ENDCHAR
STARTCHAR 00EB
ENCODING 235
SWIDTH 443 0
DWIDTH 8 0
BBX 0 0 0 0
BITMAP
ENDCHAR
STARTCHAR 00EC
ENCODING 236
SWIDTH 276 0
DWIDTH 5 0
BBX 0 0 0 0
BITMAP
ENDCHAR
STARTCHAR 00ED
ENCODING 237
SWIDTH 276 0
DWIDTH 5 0
BBX 0 0 0 0
BITMAP
ENDCHAR
STARTCHAR 00EE
ENCODING 238
SWIDTH 276 0
DWIDTH 5 0
BBX 0 0 0 0
BITMAP
ENDCHAR
STARTCHAR 00EF
ENCODING 239
SWIDTH 276 0
DWIDTH 5 0
BBX 0 0 0 0
BITMAP
ENDCHAR
STARTCHAR 00F0
ENCODING 240
SWIDTH 553 0
DWIDTH 10 0
BBX 0 0 0 0
BITMAP
ENDCHAR
STARTCHAR 00F1
ENCODING 241
SWIDTH 553 0
DWIDTH 10 0
BBX 0 0 0 0
BITMAP
ENDCHAR
STARTCHAR 00F2
ENCODING 242
SWIDTH 498 0
DWIDTH 9 0
BBX 0 0 0 0
BITMAP
ENDCHAR
STARTCHAR 00F3
ENCODING 243
SWIDTH 498 0
DWIDTH 9 0
BBX 0 0 0 0
BITMAP
ENDCHAR
STARTCHAR 00F4
ENCODING 244
SWIDTH 498 0
DWIDTH 9 0
BBX 0 0 0 0
BITMAP
ENDCHAR
STARTCHAR 00F5
ENCODING 245
SWIDTH 498 0
DWIDTH 9 0
BBX 0 0 0 0
BITMAP
ENDCHAR
STARTCHAR 00F6
ENCODING 246
SWIDTH 498 0
DWIDTH 9 0
BBX 0 0 0 0
BITMAP
ENDCHAR
STARTCHAR 00F7
ENCODING 247
SWIDTH 498 0
DWIDTH 9 0
BBX 0 0 0 0
BITMAP
ENDCHAR
STARTCHAR 00F8
ENCODING 248
SWIDTH 498 0
DWIDTH 9 0
BBX 0 0 0 0
BITMAP
ENDCHAR
STARTCHAR 00F9
ENCODING 249
SWIDTH 498 0
DWIDTH 9 0
BBX 0 0 0 0
BITMAP
ENDCHAR
STARTCHAR 00FA
ENCODING 250
SWIDTH 498 0
DWIDTH 9 0
BBX 0 0 0 0
BITMAP
ENDCHAR
STARTCHAR 00FB
ENCODING 251
SWIDTH 498 0
DWIDTH 9 0
BBX 0 0 0 0
BITMAP
ENDCHAR
STARTCHAR 00FC
ENCODING 252
SWIDTH 498 0
DWIDTH 9 0
BBX 0 0 0 0
BITMAP
ENDCHAR
STARTCHAR 00FD
ENCODING 253
SWIDTH 443 0
DWIDTH 8 0
BBX 0 0 0 0
BITMAP
ENDCHAR
STARTCHAR 00FE
ENCODING 254
SWIDTH 498 0
DWIDTH 9 0
BBX 0 0 0 0
BITMAP
ENDCHAR
STARTCHAR 00FF
ENCODING 255
SWIDTH 443 0
DWIDTH 8 0
BBX 0 0 0 0
BITMAP
ENDCHAR
STARTCHAR 0131
ENCODING 305
SWIDTH 276 0
DWIDTH 5 0
BBX 0 0 0 0
BITMAP
ENDCHAR
STARTCHAR 02C6
ENCODING 710
SWIDTH 498 0
DWIDTH 9 0
BBX 0 0 0 0
BITMAP
ENDCHAR
STARTCHAR 02C7
ENCODING 711
SWIDTH 498 0
DWIDTH 9 0
BBX 0 0 0 0
BITMAP
ENDCHAR
STARTCHAR 02C9
ENCODING 713
SWIDTH 498 0
DWIDTH 9 0
BBX 0 0 0 0
BITMAP
ENDCHAR
STARTCHAR 02D8
ENCODING 728
SWIDTH 498 0
DWIDTH 9 0
BBX 0 0 0 0
BITMAP
ENDCHAR
STARTCHAR 02D9
ENCODING 729
SWIDTH 498 0
DWIDTH 9 0
BBX 0 0 0 0
BITMAP
ENDCHAR
STARTCHAR 02DA
ENCODING 730
SWIDTH 498 0
DWIDTH 9 0
BBX 0 0 0 0
BITMAP
ENDCHAR
STARTCHAR 02DB
ENCODING 731
SWIDTH 498 0
DWIDTH 9 0
BBX 0 0 0 0
BITMAP
ENDCHAR
STARTCHAR 02DC
ENCODING 732
SWIDTH 498 0
DWIDTH 9 0
BBX 0 0 0 0
BITMAP
ENDCHAR
STARTCHAR 02DD
ENCODING 733
SWIDTH 498 0
DWIDTH 9 0
BBX 0 0 0 0
BITMAP
ENDCHAR
STARTCHAR 037E
ENCODING 894
SWIDTH 996 0
DWIDTH 18 0
BBX 17 17 0 -3
BITMAP
008000
008000
008000
008000
008000
008000
008000
008000
FFFF80
008000
008000
008000
008000
008000
008000
008000
008000
ENDCHAR
STARTCHAR 2013
ENCODING 8211
SWIDTH 553 0
DWIDTH 10 0
BBX 0 0 0 0
BITMAP
ENDCHAR
STARTCHAR 2014
ENCODING 8212
SWIDTH 996 0
DWIDTH 18 0
BBX 0 0 0 0
BITMAP
ENDCHAR
STARTCHAR 2018
ENCODING 8216
SWIDTH 276 0
DWIDTH 5 0
BBX 0 0 0 0
BITMAP
ENDCHAR
STARTCHAR 2019
ENCODING 8217
SWIDTH 276 0
DWIDTH 5 0
BBX 0 0 0 0
BITMAP
ENDCHAR
STARTCHAR 201A
ENCODING 8218
SWIDTH 276 0
DWIDTH 5 0
BBX 0 0 0 0
BITMAP
ENDCHAR
STARTCHAR 201C
ENCODING 8220
SWIDTH 443 0
DWIDTH 8 0
BBX 0 0 0 0
BITMAP
ENDCHAR
STARTCHAR 201D
ENCODING 8221
SWIDTH 443 0
DWIDTH 8 0
BBX 0 0 0 0
BITMAP
ENDCHAR
STARTCHAR 201E
ENCODING 8222
SWIDTH 443 0
DWIDTH 8 0
BBX 0 0 0 0
BITMAP
ENDCHAR
STARTCHAR 2020
ENCODING 8224
SWIDTH 498 0
DWIDTH 9 0
BBX 0 0 0 0
BITMAP
ENDCHAR
STARTCHAR 2021
ENCODING 8225
SWIDTH 498 0
DWIDTH 9 0
BBX 0 0 0 0
BITMAP
ENDCHAR
STARTCHAR 2022
ENCODING 8226
SWIDTH 498 0
DWIDTH 9 0
BBX 0 0 0 0
BITMAP
ENDCHAR
STARTCHAR 2026
ENCODING 8230
SWIDTH 996 0
DWIDTH 18 0
BBX 0 0 0 0
BITMAP
ENDCHAR
STARTCHAR 2039
ENCODING 8249
SWIDTH 332 0
DWIDTH 6 0
BBX 0 0 0 0
BITMAP
ENDCHAR
STARTCHAR 203A
ENCODING 8250
SWIDTH 332 0
DWIDTH 6 0
BBX 0 0 0 0
BITMAP
ENDCHAR
STARTCHAR 2044
ENCODING 8260
SWIDTH 166 0
DWIDTH 3 0
BBX 0 0 0 0
BITMAP
ENDCHAR
STARTCHAR 20A3
ENCODING 8355
SWIDTH 498 0
DWIDTH 9 0
BBX 0 0 0 0
BITMAP
ENDCHAR
STARTCHAR 20A4
ENCODING 8356
SWIDTH 498 0
DWIDTH 9 0
BBX 0 0 0 0
BITMAP
ENDCHAR
STARTCHAR 20A7
ENCODING 8359
SWIDTH 996 0
DWIDTH 18 0
BBX 0 0 0 0
BITMAP
ENDCHAR
STARTCHAR 20AC
ENCODING 8364
SWIDTH 498 0
DWIDTH 9 0
BBX 0 0 0 0
BITMAP
ENDCHAR
STARTCHAR 2116
ENCODING 8470
SWIDTH 1107 0
DWIDTH 20 0
BBX 0 0 0 0
BITMAP
ENDCHAR
STARTCHAR 2122
ENCODING 8482
SWIDTH 720 0
DWIDTH 13 0
BBX 0 0 0 0
BITMAP
ENDCHAR
STARTCHAR 2202
ENCODING 8706
SWIDTH 498 0
DWIDTH 9 0
BBX 0 0 0 0
BITMAP
ENDCHAR
STARTCHAR 2206
ENCODING 8710
SWIDTH 553 0
DWIDTH 10 0
BBX 0 0 0 0
BITMAP
ENDCHAR
STARTCHAR 220F
ENCODING 8719
SWIDTH 720 0
DWIDTH 13 0
BBX 0 0 0 0
BITMAP
ENDCHAR
STARTCHAR 2211
ENCODING 8721
SWIDTH 609 0
DWIDTH 11 0
BBX 0 0 0 0
BITMAP
ENDCHAR
STARTCHAR 2212
ENCODING 8722
SWIDTH 498 0
DWIDTH 9 0
BBX 0 0 0 0
BITMAP
ENDCHAR
STARTCHAR 2215
ENCODING 8725
SWIDTH 166 0
DWIDTH 3 0
BBX 0 0 0 0
BITMAP
ENDCHAR
STARTCHAR 2219
ENCODING 8729
SWIDTH 221 0
DWIDTH 4 0
BBX 0 0 0 0
BITMAP
ENDCHAR
STARTCHAR 221A
ENCODING 8730
SWIDTH 498 0
DWIDTH 9 0
BBX 0 0 0 0
BITMAP
ENDCHAR
STARTCHAR 221E
ENCODING 8734
SWIDTH 498 0
DWIDTH 9 0
BBX 0 0 0 0
BITMAP
ENDCHAR
STARTCHAR 222B
ENCODING 8747
SWIDTH 332 0
DWIDTH 6 0
BBX 0 0 0 0
BITMAP
ENDCHAR
STARTCHAR 2248
ENCODING 8776
SWIDTH 498 0
DWIDTH 9 0
BBX 0 0 0 0
BITMAP
ENDCHAR
STARTCHAR 2264
ENCODING 8804
SWIDTH 498 0
DWIDTH 9 0
BBX 0 0 0 0
BITMAP
ENDCHAR
STARTCHAR 2265
ENCODING 8805
SWIDTH 498 0
DWIDTH 9 0
BBX 0 0 0 0
BITMAP
ENDCHAR
STARTCHAR F001
ENCODING 61441
SWIDTH 498 0
DWIDTH 9 0
BBX 0 0 0 0
BITMAP
ENDCHAR
STARTCHAR F002
ENCODING 61442
SWIDTH 553 0
DWIDTH 10 0
BBX 0 0 0 0
BITMAP
ENDCHAR
STARTCHAR FB01
ENCODING 64257
SWIDTH 498 0
DWIDTH 9 0
BBX 0 0 0 0
BITMAP
ENDCHAR
STARTCHAR FB02
ENCODING 64258
SWIDTH 553 0
DWIDTH 10 0
BBX 0 0 0 0
BITMAP
ENDCHAR
ENDFONT
